<svg width="170" height="40" fill="none" xmlns="http://www.w3.org/2000/svg"><path d="M45.433 8.147l-.675.707v2.09a.512.512 0 01-.154.382.54.54 0 01-.6.12.524.524 0 01-.171-.12.51.51 0 01-.153-.381V4.353a.604.604 0 01.153-.383.6.6 0 01.382-.152.61.61 0 01.386.152.605.605 0 01.154.393v2.946l3.029-3.229a.511.511 0 01.35-.206.5.5 0 01.405.11.515.515 0 01.208.348.497.497 0 01-.11.403l-2.45 2.629 2.482 3.243a.5.5 0 01.135.393.557.557 0 01-.212.369.542.542 0 01-.754-.077l-2.405-3.145zM52.146 8.529l-2.22 2.721a.54.54 0 01-.42.207.527.527 0 01-.328-.12.515.515 0 01-.212-.348.492.492 0 01.11-.403l2.382-2.94-2.357-2.917a.501.501 0 01-.11-.404.477.477 0 01.203-.355.486.486 0 01.393-.11c.142.022.271.096.36.208l2.199 2.7 2.153-2.704a.564.564 0 01.57-.196.49.49 0 01.185.098.481.481 0 01.207.359.496.496 0 01-.11.404l-2.317 2.917-.688.883zM58.727 3.846a2.116 2.116 0 011.509.662 2.128 2.128 0 01.032 2.973c-.394.414-.927.67-1.498.719-.006.006-.63.01-1.87.01v2.69a.495.495 0 01-.163.381.527.527 0 01-.763.004.557.557 0 01-.166-.377V4.39A.536.536 0 0155.97 4a.52.52 0 01.384-.154h2.372zm-.088 3.277a1.085 1.085 0 00.798-.328c.208-.208.328-.488.335-.781a1.136 1.136 0 00-.339-.774 1.08 1.08 0 00-.798-.304h-1.734v2.187h1.738zM68.052 6.503a.542.542 0 01-.406.045.46.46 0 01-.309-.241c-.546-.907-1.33-1.36-2.35-1.36a2.768 2.768 0 00-1.931.802 2.745 2.745 0 00-.813 1.92 2.546 2.546 0 00.81 1.904 2.691 2.691 0 001.935.774 2.66 2.66 0 001.282-.323c.402-.22.744-.534.996-.915a.442.442 0 01.341-.244.407.407 0 01.383.11.495.495 0 01.27.315.413.413 0 01-.077.404c-.343.54-.816.986-1.377 1.297a3.659 3.659 0 01-1.826.468 3.754 3.754 0 01-2.711-1.111 3.601 3.601 0 01-1.146-2.68 3.662 3.662 0 011.149-2.721 3.853 3.853 0 014.613-.61 3.465 3.465 0 011.364 1.382.582.582 0 01.077.468.491.491 0 01-.274.316zM69.616 11.447a.52.52 0 01-.388-.153.538.538 0 01-.163-.392v-6.51a.474.474 0 01.163-.381.504.504 0 01.384-.165.528.528 0 01.382.165.476.476 0 01.164.38v2.69c1.24 0 1.863.004 1.87.011.57.05 1.103.305 1.497.719.385.393.597.921.59 1.47a2.19 2.19 0 01-.629 1.51 2.21 2.21 0 01-1.502.657l-2.368-.001zm.54-3.278v2.188h1.739a1.085 1.085 0 00.798-.304c.209-.205.33-.482.34-.773a1.147 1.147 0 00-.34-.785 1.08 1.08 0 00-.798-.326h-1.739zm4.297-3.82a.537.537 0 01.54-.539c.147.004.288.06.395.16a.6.6 0 01.153.382v6.572a.517.517 0 01-.153.38.526.526 0 01-.382.164.562.562 0 01-.54-.538l-.013-6.582zM84.2 3.825a.597.597 0 01.382.153.6.6 0 01.154.396.592.592 0 01-.154.38.595.595 0 01-.382.152h-1.662v6.018a.511.511 0 01-.154.38.523.523 0 01-.382.164.561.561 0 01-.54-.538V4.902h-1.658a.52.52 0 01-.382-.152.521.521 0 01-.122-.589.539.539 0 01.504-.332l4.396-.004zM88.102 8.529l-2.22 2.721a.54.54 0 01-.425.207.522.522 0 01-.328-.12.51.51 0 01-.208-.348.502.502 0 01.11-.403l2.382-2.94-2.36-2.917a.501.501 0 01-.11-.404.538.538 0 01.961-.26l2.198 2.699 2.155-2.7a.564.564 0 01.36-.207.542.542 0 01.602.468.499.499 0 01-.11.404l-2.318 2.917-.689.883zM94.684 3.846a2.116 2.116 0 011.508.662 2.066 2.066 0 01.623 1.503 2.055 2.055 0 01-.59 1.47 2.349 2.349 0 01-1.497.719c-.008.006-.631.01-1.87.01v2.69a.497.497 0 01-.164.381.524.524 0 01-.383.165.565.565 0 01-.54-.538V4.39A.537.537 0 0191.936 4a.518.518 0 01.382-.154h2.366zm-.087 3.277a1.085 1.085 0 00.797-.328c.21-.208.332-.489.34-.784a1.13 1.13 0 00-.34-.774 1.08 1.08 0 00-.797-.304H92.86v2.19h1.738zM101.513 10.357a.599.599 0 01.383.154.544.544 0 01.123.6.495.495 0 01-.123.172.533.533 0 01-.383.164h-3.812a.564.564 0 01-.54-.538V4.39A.537.537 0 0197.326 4a.516.516 0 01.382-.154h3.805a.598.598 0 01.383.154.543.543 0 01.163.391.49.49 0 01-.159.386.532.532 0 01-.387.159h-3.269v2.187h2.493a.598.598 0 01.382.154.544.544 0 01.124.6.51.51 0 01-.124.172.52.52 0 01-.382.164h-2.489v2.144h3.265zM108.284 11.458h-5.015a.508.508 0 01-.382-.165.518.518 0 01-.163-.38V4.402a.483.483 0 01.163-.38.508.508 0 01.382-.165.529.529 0 01.384.164.477.477 0 01.157.38v5.967h3.377V4.402a.483.483 0 01.163-.38.51.51 0 01.384-.165.528.528 0 01.382.164.478.478 0 01.164.38v5.967h.558a.61.61 0 01.393.153c.095.105.15.24.154.381v1.785a.52.52 0 01-.154.38.56.56 0 01-.607.123.544.544 0 01-.179-.122.484.484 0 01-.124-.173.482.482 0 01-.041-.208l.004-1.23zM111.695 8.147l-.676.707v2.09a.504.504 0 01-.154.382.544.544 0 01-.601.121.522.522 0 01-.174-.121.5.5 0 01-.154-.381V4.353a.6.6 0 01.153-.383.597.597 0 01.382-.152.616.616 0 01.393.152.607.607 0 01.154.393v2.946l3.027-3.229a.527.527 0 01.35-.206.504.504 0 01.405.11.516.516 0 01.208.348.497.497 0 01-.109.403l-2.444 2.629 2.482 3.243a.5.5 0 01.135.393.56.56 0 01-.218.369.54.54 0 01-.569.07.514.514 0 01-.184-.147l-2.406-3.145zM119.119 11.447a3.615 3.615 0 01-2.679-1.133 3.746 3.746 0 01-1.105-2.7 3.67 3.67 0 011.105-2.657 3.775 3.775 0 012.678-1.11 3.788 3.788 0 012.678 1.11 3.67 3.67 0 011.105 2.657 3.718 3.718 0 01-1.105 2.7 3.589 3.589 0 01-2.677 1.133zm0-6.545c-.722.001-1.414.287-1.925.795a2.704 2.704 0 00-.798 1.917 2.673 2.673 0 00.798 1.971 2.701 2.701 0 001.924.802 2.71 2.71 0 001.925-.802 2.762 2.762 0 00.81-1.97 2.625 2.625 0 00-.81-1.918 2.633 2.633 0 00-1.924-.795zM124.595 4.947v5.966a.534.534 0 01-.163.391.598.598 0 01-.382.154.525.525 0 01-.383-.154.543.543 0 01-.163-.391V4.402a.483.483 0 01.163-.38.51.51 0 01.384-.165h3.804a.528.528 0 01.382.164.476.476 0 01.158.38.53.53 0 01-.165.393.597.597 0 01-.375.153h-3.26zM132.456 11.447a3.615 3.615 0 01-2.679-1.133 3.747 3.747 0 01-1.104-2.7 3.68 3.68 0 011.104-2.657 3.775 3.775 0 012.679-1.11 3.788 3.788 0 012.678 1.11 3.685 3.685 0 011.105 2.657 3.717 3.717 0 01-1.105 2.7 3.607 3.607 0 01-2.678 1.133zm0-6.545a2.73 2.73 0 00-1.924.796 2.707 2.707 0 00-.798 1.916 2.673 2.673 0 00.798 1.971 2.712 2.712 0 003.849 0 2.761 2.761 0 00.81-1.97 2.608 2.608 0 00-.81-1.918 2.632 2.632 0 00-1.925-.795zM144.68 3.87a.543.543 0 01.393.162.517.517 0 01.163.38v6.512a.496.496 0 01-.163.38.556.556 0 01-.89-.172.496.496 0 01-.04-.208v-2.69h-1.116l-1.814 2.959a.537.537 0 01-.47.269.484.484 0 01-.284-.077.543.543 0 01-.252-.348.49.49 0 01.066-.404l1.531-2.483a2.49 2.49 0 01-1.17-.828 2.06 2.06 0 01-.269-2.131c.116-.264.285-.502.496-.699a2.092 2.092 0 011.498-.62l2.321-.003zm-.541 3.276V4.957h-1.738a1.085 1.085 0 00-.799.306c-.208.204-.33.48-.339.772a1.148 1.148 0 00.704 1.03c.138.057.285.084.434.081h1.738zM147.037 9.41c.02.146.071.286.148.411.076.125.178.234.299.319.255.189.568.284.886.268.322.01.635-.103.875-.316a.984.984 0 00.349-.762 1.093 1.093 0 00-.349-.794 1.188 1.188 0 00-.875-.348.682.682 0 01-.448-.154.485.485 0 01-.164-.38.534.534 0 01.164-.392.682.682 0 01.448-.153 1.191 1.191 0 001.134-.706c.06-.138.09-.288.09-.44a.997.997 0 00-.349-.762 1.26 1.26 0 00-.875-.316 1.594 1.594 0 00-.863.262 1.016 1.016 0 00-.47.599.675.675 0 01-.241.36.47.47 0 01-.437.087c-.371-.067-.557-.27-.558-.611a2.039 2.039 0 01.929-1.274 2.87 2.87 0 011.644-.472 2.639 2.639 0 011.728.61 1.917 1.917 0 01.743 1.525 2.001 2.001 0 01-.874 1.687 2.012 2.012 0 01.874 1.676c0 .575-.248 1.075-.743 1.502a2.559 2.559 0 01-1.728.643 2.83 2.83 0 01-1.717-.538 2.158 2.158 0 01-.852-1.361c0-.34.186-.548.558-.62a.8.8 0 01.459.14.419.419 0 01.215.31zM152.035 11.447a.513.513 0 01-.382-.153.53.53 0 01-.164-.392v-6.51a.483.483 0 01.164-.381.498.498 0 01.382-.165.529.529 0 01.384.165.49.49 0 01.163.38v2.69c1.239 0 1.862.004 1.87.011a2.35 2.35 0 011.5.717c.385.393.597.922.591 1.47a2.195 2.195 0 01-.63 1.51 2.21 2.21 0 01-1.502.658h-2.376zm.54-3.278v2.188h1.739a1.08 1.08 0 00.798-.304c.209-.205.33-.482.338-.773a1.143 1.143 0 00-.338-.785 1.08 1.08 0 00-.798-.326h-1.739zm4.297-3.82a.538.538 0 01.541-.539.605.605 0 01.383.152c.095.106.149.24.153.382v6.58a.52.52 0 01-.153.38.523.523 0 01-.76.001.558.558 0 01-.164-.375V4.348zM160.444 8.147l-.676.708v2.09a.518.518 0 01-.152.38.538.538 0 01-.393.165.528.528 0 01-.384-.164.515.515 0 01-.153-.381V4.353a.613.613 0 01.153-.392.604.604 0 01.384-.152.616.616 0 01.39.161c.096.109.15.248.153.393v2.946l3.028-3.229a.527.527 0 01.35-.205.5.5 0 01.405.108.512.512 0 01.208.349.507.507 0 01-.109.404l-2.449 2.624 2.483 3.243a.503.503 0 01.135.393.571.571 0 01-.208.37.543.543 0 01-.755-.077l-2.41-3.142zM168.163 9.944h-2.668l-.46 1.11c-.051.261-.225.393-.524.393h-.121a.604.604 0 01-.338-.316c-.073-.08-.092-.214-.055-.404l2.339-6.488a.512.512 0 01.541-.393.492.492 0 01.513.393l2.219 6.488a.541.541 0 010 .404.611.611 0 01-.328.316.667.667 0 01-.405-.055.712.712 0 01-.318-.338l-.395-1.11zm-.323-1.1l-.962-2.787-.985 2.787h1.947z" fill="#fff"/><path d="M53.588 15.484c.81-1.822 3.562-1.749 4.332.07 2.413 5.097 4.24 10.458 6.544 15.604 1.439.287 3.943.372 3.765 2.456.27 1.518-1.23 2.825-2.702 2.595-6.484.038-12.976.108-19.464.008-1.892.21-3.22-1.775-2.62-3.48.69-1.416 2.402-1.222 3.686-1.572 2.281-5.17 4.048-10.568 6.46-15.681zm-1.11 15.92c2.202-.009 4.403-.009 6.604 0-1.065-2.812-2.139-5.621-3.22-8.428-1.301 2.733-2.336 5.585-3.384 8.427zM69.769 16.169c.045-1.238 1.094-2.19 2.255-2.142a2.212 2.212 0 011.418.631c.38.375.61.873.65 1.405l-.036 12.241a601.57 601.57 0 0010.842-12.97c.237-.323.543-.591.897-.782.717-.386 1.75-.51 2.398-.065.778.538.83 1.697.845 2.22.075 2.393.09 8.987-.024 17.856-.384 1.19-1.533 1.938-2.702 1.808a2.571 2.571 0 01-1.364-.614 2.553 2.553 0 01-.787-1.269c-.05-3.549-.097-7.098-.145-10.647l-6.007 6.397a216.23 216.23 0 01-4.215 4.65c-.262.282-.991 1.034-1.982 1.21-.23.042-.972.174-1.518-.24a1.53 1.53 0 01-.16-.128c-.43-.404-.46-.989-.473-1.227-.04-.712-.01-8.148.108-18.334zM96.74 16.653c.7-1.804 2.52-3.477 4.592-2.78 2.297 1.014 2.837 3.687 3.726 5.784 1.595 4.687 3.782 9.188 5.033 13.99.505 1.892-1.756 3.2-3.377 2.51-1.494-.952-1.68-2.85-2.311-4.353-2.715-.008-5.422 0-8.13-.022-.505 1.247-.886 2.572-1.62 3.71-1.035 1.278-3.353 1.123-4.1-.38-.242-2.17.793-4.183 1.5-6.166 1.626-4.08 2.976-8.256 4.687-12.293zm.832 10.59c1.813 0 3.628-.003 5.445-.008-.946-2.71-1.781-5.454-2.621-8.197-1.02 2.706-1.898 5.455-2.824 8.205zM117.625 17.636c.355-1.049 1.232-3.64 2.814-3.843.279-.031.562.002.826.097 1.792.578 2.518 3.058 2.648 3.523l6.456 16.222a2.403 2.403 0 01-1.502 2.676 2.418 2.418 0 01-2.917-.98l-5.025-12.376-4.323 11.544c-.344 1.12-1.215 1.926-2.235 2.046-.194.023-1.39.134-2.041-.774-.591-.828-.242-1.813-.207-1.91 2.434-7.308 4.389-12.956 5.506-16.225zM138.11 14.617c3.975-1.435 8.938-.977 12.058 2.067 3.695 3.65 3.959 9.686 2.07 14.26-3.243 7.491-15.535 7.677-19.2.473-2.862-5.677-1.471-14.352 5.072-16.8zm1.603 4.554c-3.19 2.317-3.478 7.13-1.728 10.413 1.649 3.184 6.738 3.44 8.729.488 1.844-2.743 1.844-6.578.155-9.398-1.401-2.378-4.901-2.96-7.156-1.503zM156.787 14.693l11.334-.134c1.136.333 1.898 1.345 1.879 2.383-.023 1.285-1.216 2.44-2.724 2.39l-7.486.013-.093 15.066a2.415 2.415 0 01-.794 1.532 2.435 2.435 0 01-4.037-1.517l-.124-15.5c-.035-.19-.421-2.528 1.06-3.719.291-.235.626-.41.985-.514z" fill="#E6514A"/><path d="M25.977 14.98c3.877 0 7.019-3.13 7.019-6.99 0-3.86-3.143-6.99-7.019-6.99-3.876 0-7.019 3.13-7.019 6.99 0 3.86 3.143 6.99 7.02 6.99z" stroke="#fff" stroke-width=".83" stroke-miterlimit="10"/><path d="M29.443 10.118a5.292 5.292 0 01-6.754.121" stroke="#fff" stroke-width=".83" stroke-miterlimit="10" stroke-linecap="round"/><path d="M23.671 6.409a.283.283 0 01-.285.282.283.283 0 01-.285-.282c0-.154.126-.282.285-.282.16 0 .285.128.285.282zM29.185 6.409a.283.283 0 01-.285.282.283.283 0 01-.285-.282c0-.154.126-.282.285-.282.16 0 .285.128.285.282z" fill="#fff" stroke="#fff"/><path d="M10.692 18.313c3.877 0 7.02-3.13 7.02-6.99 0-3.86-3.143-6.99-7.02-6.99-3.876 0-7.019 3.13-7.019 6.99 0 3.86 3.143 6.99 7.02 6.99z" stroke="#fff" stroke-width=".83" stroke-miterlimit="10"/><path d="M14.16 13.453a5.296 5.296 0 01-6.754.12" stroke="#fff" stroke-width=".83" stroke-miterlimit="10" stroke-linecap="round"/><path d="M8.386 9.743a.283.283 0 01-.285.281.283.283 0 01-.284-.281c0-.154.125-.282.284-.282.16 0 .285.128.285.282zM13.9 9.743a.283.283 0 01-.284.281.283.283 0 01-.285-.281c0-.154.125-.282.285-.282.159 0 .284.128.284.282z" fill="#fff" stroke="#fff"/><path d="M35.67 27.23c0-5.54-4.749-10.257-5.562-11.324-1.08 1.336-3.176 1.614-4.13 1.666-.956-.055-3.051-.33-4.13-1.666-.811 1.067-5.563 5.785-5.563 11.324 0 4.027 2.381 8.407 9.195 8.794v.031c.17 0 .334 0 .497-.01.163-.009.328.01.497.01v-.03c6.822-.388 9.197-4.768 9.197-8.795z" fill="#fff"/><path d="M35.67 27.279c0-1.824-.317-2.97-1.037-4.516-1.467-3.146-16.075-2.845-17.542.075-.832 1.655-.81 2.437-.81 4.44 0 4.026 2.381 8.405 9.195 8.793v.031c.17 0 .334 0 .497-.009.163-.01.328.01.497.01v-.032c6.826-.387 9.2-4.766 9.2-8.792z" fill="#3035C4"/><path d="M16.336 28.308c1.004 3.265 2.909 7.41 9.144 7.765v.03c.17 0 .334 0 .497-.009.163-.01.328.01.497.01v-.031c6.233-.356 9.093-5.056 9.144-7.17-2.088-2.583-14.599-2.583-19.282-.595z" fill="#E6514A"/><path opacity=".33" d="M26.06 33.686c-4.146-.414-7.21-3.71-6.841-7.36-.776-.134-1.101.473-1.506.604-.37 3.65 2.701 6.946 6.842 7.36a8.215 8.215 0 004.657-.88 8.4 8.4 0 01-3.151.276z" fill="#fff"/><path d="M35.67 27.23c0-5.54-4.749-10.257-5.562-11.324-1.08 1.336-3.176 1.614-4.13 1.666-.956-.055-3.051-.33-4.13-1.666-.811 1.067-5.563 5.785-5.563 11.324 0 4.027 2.381 8.407 9.195 8.794v.031c.17 0 .334 0 .497-.01.163-.009.328.01.497.01v-.03c6.822-.388 9.197-4.768 9.197-8.795z" stroke="#fff" stroke-width=".83" stroke-linejoin="round"/><path d="M20.386 30.177c0-5.54-4.75-10.258-5.563-11.325-1.08 1.336-3.176 1.615-4.13 1.665-.956-.054-3.05-.329-4.13-1.665C5.753 19.92 1 24.637 1 30.177c0 4.025 2.382 8.405 9.197 8.792V39c.168 0 .332 0 .495-.01.164-.009.329.01.497.01v-.03c6.815-.388 9.197-4.768 9.197-8.793z" fill="#E6514A" stroke="#fff" stroke-width=".83" stroke-linejoin="round"/><path fill-rule="evenodd" clip-rule="evenodd" d="M10.999 28.314l.623.825.98-.333-.597.845.623.826-.992-.304-.596.844-.015-1.033-.992-.304.982-.333L11 28.313z" fill="#fff"/><path d="M10.114 33.478a3.766 3.766 0 01-2.657-1.096 3.734 3.734 0 010-5.293 3.766 3.766 0 013.858-.897 4.412 4.412 0 00-4.72-.01 4.386 4.386 0 00-1.627 1.833 4.364 4.364 0 00.592 4.663 4.416 4.416 0 006.603.192 3.76 3.76 0 01-2.049.608z" fill="#fff"/></svg>