<?xml version="1.0" encoding="utf-8"?><svg viewBox="0 0 170 100" xmlns="http://www.w3.org/2000/svg" xmlns:xlink="http://www.w3.org/1999/xlink"><style>:root>svg{display:none}:root>svg:target{display:block}</style><svg fill="none" viewBox="0 0 100 100" id="bags" xmlns="http://www.w3.org/2000/svg"><circle opacity=".6" cx="50" cy="50" r="49" fill="#DEDEFF" fill-opacity=".4" stroke="#3035C4" stroke-width="2"/><g clip-path="url(#aclip0_2121:80)"><path d="M52.342 33.27h-5.797v-6.805h1.221a.732.732 0 100-1.465H32.998a.733.733 0 100 1.465h1.22v6.805h-5.796A3.426 3.426 0 0025 36.69v31.731a3.427 3.427 0 002.93 3.386v.995A2.2 2.2 0 0030.127 75a2.2 2.2 0 002.198-2.197v-.96h16.114v.96A2.2 2.2 0 0050.637 75a2.2 2.2 0 002.197-2.197v-.995a3.427 3.427 0 002.93-3.386V42.267a.732.732 0 00-1.465 0v26.155a1.96 1.96 0 01-1.957 1.957h-23.92a1.96 1.96 0 01-1.957-1.957v-31.73a1.96 1.96 0 011.957-1.958h23.92a1.96 1.96 0 011.957 1.957v2.147a.732.732 0 001.465 0v-2.147a3.426 3.426 0 00-3.422-3.421zm-.973 38.574v.959a.733.733 0 01-1.465 0v-.96h1.465zm-20.51 0v.959a.733.733 0 01-1.464 0v-.96h1.465zm4.824-45.38h9.398v6.806h-9.398v-6.805z" fill="#3035C4"/><path fill-rule="evenodd" clip-rule="evenodd" d="M32.015 25.732c0-.542.44-.982.983-.982h14.768a.983.983 0 010 1.965h-.97v6.305h5.546a3.676 3.676 0 013.672 3.671v2.147a.982.982 0 01-1.965 0v-2.147a1.71 1.71 0 00-1.707-1.707h-23.92a1.71 1.71 0 00-1.707 1.707v31.731a1.71 1.71 0 001.707 1.707h23.92a1.71 1.71 0 001.707-1.707V42.267a.982.982 0 011.965 0v26.155a3.678 3.678 0 01-2.93 3.596v.785a2.45 2.45 0 01-2.447 2.447 2.45 2.45 0 01-2.448-2.447v-.71H32.575v.71a2.45 2.45 0 01-2.448 2.447 2.45 2.45 0 01-2.447-2.447v-.785a3.678 3.678 0 01-2.93-3.596v-31.73a3.676 3.676 0 013.672-3.672h5.546v-6.305h-.97a.982.982 0 01-.983-.983zm.983-.482a.483.483 0 100 .965h1.47v7.305h-6.046a3.176 3.176 0 00-3.172 3.171v31.731a3.177 3.177 0 002.716 3.14l.214.03v1.21a1.95 1.95 0 001.947 1.948 1.95 1.95 0 001.948-1.947v-1.21h16.614v1.21a1.95 1.95 0 001.948 1.947 1.95 1.95 0 001.947-1.947v-1.21l.214-.032a3.177 3.177 0 002.716-3.139V42.267a.482.482 0 00-.965 0v26.155a2.21 2.21 0 01-2.207 2.207h-23.92a2.21 2.21 0 01-2.207-2.207v-31.73a2.21 2.21 0 012.207-2.208h23.92c1.217 0 2.207.99 2.207 2.207v2.147a.482.482 0 00.965 0v-2.147a3.176 3.176 0 00-3.172-3.171h-6.047v-7.305h1.471a.482.482 0 100-.965H32.998zm2.435.965h9.898v7.305h-9.898v-7.305zm.5.5v6.305h8.898v-6.305h-8.898zm-6.788 44.879h1.965v1.209a.983.983 0 01-1.965 0v-1.21zm.5.5v.709a.483.483 0 00.965 0v-.71h-.965zm20.009-.5h1.965v1.209a.983.983 0 01-1.965 0v-1.21zm.5.5v.709a.483.483 0 00.965 0v-.71h-.965z" fill="#3035C4"/><path d="M34.94 68.914h17.162a.733.733 0 00.732-.732V51.873a.733.733 0 00-.733-.732H28.663a.733.733 0 00-.732.732v16.309c0 .404.328.732.732.732h2.93a.733.733 0 000-1.465h-2.197V52.606h21.974v14.843h-16.43a.733.733 0 000 1.465z" fill="#3035C4"/><path fill-rule="evenodd" clip-rule="evenodd" d="M27.68 51.873c0-.543.44-.982.982-.982h23.44c.542 0 .982.44.982.982v16.309c0 .542-.44.982-.983.982H34.94a.983.983 0 010-1.965h16.18V52.856H29.645v14.343h1.947a.983.983 0 010 1.965h-2.93a.983.983 0 01-.982-.982V51.873zm.982-.482a.483.483 0 00-.482.482v16.309c0 .266.216.482.482.482h2.93a.483.483 0 000-.965h-2.447V52.356h22.474v15.343h-16.68a.483.483 0 000 .965h17.163a.483.483 0 00.482-.482V51.873a.482.482 0 00-.483-.482H28.663z" fill="#3035C4"/><path d="M46.828 58.61a.732.732 0 00.732-.731v-2.38h1.612a.732.732 0 100-1.464h-17.58a.733.733 0 100 1.465h14.503v2.379c0 .404.328.732.733.732z" fill="#E6514A"/><path fill-rule="evenodd" clip-rule="evenodd" d="M30.61 54.767c0-.543.44-.982.982-.982h17.58a.982.982 0 110 1.965H47.81v2.129a.983.983 0 01-1.965 0v-2.13H31.592a.982.982 0 01-.982-.982zm.982-.482a.483.483 0 100 .965h14.753v2.629a.482.482 0 00.965 0v-2.63h1.862a.482.482 0 100-.964h-17.58z" fill="#E6514A"/><path d="M45.265 44.981a.733.733 0 00.733-.732v-2.93a.732.732 0 00-.733-.732h-9.766a.732.732 0 00-.733.732v2.93c0 .404.328.732.733.732h9.766zm-9.034-2.93h8.302v1.466H36.23v-1.465z" fill="#E6514A"/><path fill-rule="evenodd" clip-rule="evenodd" d="M34.516 41.32c0-.543.44-.983.983-.983h9.766c.543 0 .983.44.983.982v2.93c0 .543-.44.982-.983.982h-9.766a.982.982 0 01-.983-.982v-2.93zm.983-.483a.483.483 0 00-.483.482v2.93c0 .266.216.482.483.482h9.766a.483.483 0 00.483-.482v-2.93a.482.482 0 00-.483-.482h-9.766zm.482.965h8.802v1.965H35.98v-1.965zm.5.5v.965h7.802v-.965H36.48z" fill="#E6514A"/><path d="M71.578 47.887h-5.822v-2.786a2.332 2.332 0 00-2.33-2.33h-5.513a.732.732 0 100 1.465h5.513c.477 0 .865.388.865.865v2.786h-6.378a.732.732 0 100 1.465h6.378v1.464l-1.548 1.577a.732.732 0 00-.21.513V57.4c0 .404.328.732.733.732h3.515a.733.733 0 00.733-.732v-4.493a.732.732 0 00-.21-.513l-1.548-1.577v-1.464h5.822a1.96 1.96 0 011.957 1.957v11.542h-2.492a.732.732 0 100 1.465h2.492v1.93H57.913a.732.732 0 100 1.465h15.622v.711a1.96 1.96 0 01-1.957 1.957H57.913a.732.732 0 100 1.465h10.002v.959A2.2 2.2 0 0070.113 75a2.2 2.2 0 002.197-2.197v-1.038A3.428 3.428 0 0075 68.422V51.309a3.426 3.426 0 00-3.422-3.422zm-5.53 8.78h-2.05v-3.461l1.026-1.045 1.025 1.045v3.46zm4.797 16.136a.733.733 0 01-1.465 0v-.96h1.465v.96z" fill="#3035C4"/><path fill-rule="evenodd" clip-rule="evenodd" d="M56.93 43.503c0-.542.44-.982.983-.982h5.513a2.582 2.582 0 012.58 2.58v2.536h5.572a3.676 3.676 0 013.672 3.672v17.113a3.678 3.678 0 01-2.69 3.538v.843a2.45 2.45 0 01-2.447 2.447 2.45 2.45 0 01-2.448-2.447v-.71h-9.752a.982.982 0 110-1.964h13.665a1.71 1.71 0 001.707-1.707v-.46H57.913a.982.982 0 110-1.966h15.372v-1.43h-2.242a.982.982 0 110-1.965h2.242V51.31a1.71 1.71 0 00-1.707-1.707h-5.572v1.112l1.477 1.504c.18.184.281.431.281.688V57.4c0 .542-.44.982-.983.982h-3.515a.983.983 0 01-.983-.982v-4.493c0-.257.101-.504.281-.688l1.477-1.504v-1.112h-6.128a.982.982 0 110-1.965h6.128v-2.536a.616.616 0 00-.615-.615h-5.513a.982.982 0 01-.983-.983zm.983-.482a.482.482 0 100 .965h5.513c.615 0 1.115.5 1.115 1.115v3.036h-6.628a.482.482 0 100 .965h6.628v1.817l-1.62 1.65a.483.483 0 00-.138.337V57.4c0 .266.216.482.483.482h3.515a.483.483 0 00.483-.482v-4.493a.483.483 0 00-.138-.337l-1.62-1.65v-1.817h6.072a2.21 2.21 0 012.207 2.207v11.792h-2.742a.482.482 0 100 .965h2.742v2.43H57.913a.482.482 0 100 .965h15.872v.961a2.21 2.21 0 01-2.207 2.207H57.913a.482.482 0 100 .965h10.252v1.209a1.95 1.95 0 001.948 1.947 1.95 1.95 0 001.947-1.947v-1.24l.197-.042a3.178 3.178 0 002.493-3.099V51.309a3.176 3.176 0 00-3.172-3.172h-6.072v-3.036c0-1.147-.933-2.08-2.08-2.08h-5.513zm7.11 8.783l1.276 1.3v3.812h-2.551v-3.812l1.276-1.3zm-.775 1.504v3.108h1.551v-3.108l-.776-.79-.775.79zm4.882 18.286h1.965v1.209a.983.983 0 01-1.965 0v-1.21zm1.465 1.218v-.718h-.965v.709a.483.483 0 00.965.01z" fill="#3035C4"/><path d="M57.913 64.316h9.745a.732.732 0 100-1.464h-9.745a.732.732 0 100 1.464z" fill="#3035C4"/><path fill-rule="evenodd" clip-rule="evenodd" d="M56.93 63.584c0-.543.44-.982.983-.982h9.745a.982.982 0 110 1.964h-9.745a.982.982 0 01-.983-.982zm.983-.482a.482.482 0 100 .964h9.745a.482.482 0 100-.964h-9.745z" fill="#3035C4"/></g><defs><clipPath id="aclip0_2121:80"><path fill="#fff" transform="translate(25 25)" d="M0 0h50v50H0z"/></clipPath></defs></svg><svg fill="none" viewBox="0 0 20 20" id="btn_phone" xmlns="http://www.w3.org/2000/svg"><path d="M11.696 12.988l-1.139 1.193a.53.53 0 01-.678.078l-.007-.007a14.113 14.113 0 01-3.926-4.112l-.01-.012a.597.597 0 01.073-.712l1.139-1.193a1.46 1.46 0 00.014-2.018L5.353 4.31a1.323 1.323 0 00-1.932-.01l-.476.498c-1.947 2.04-2.253 5.213-.728 7.543l.705 1.076a15.07 15.07 0 003.817 3.999l1.026.737c2.224 1.599 5.252 1.278 7.2-.762l.467-.49a1.48 1.48 0 00.008-2.024l-1.817-1.904c-.536-.56-1.383-.555-1.927.015zm3.085 2.56c.178.18.183.476.011.662l-.01.011-.467.489c-1.634 1.713-4.17 1.986-6.03.65l-1.026-.738a14.122 14.122 0 01-3.58-3.75l-.704-1.075c-1.276-1.948-1.015-4.605.62-6.318l.467-.489a.432.432 0 01.631-.01l1.82 1.906c.176.185.17.462-.015.657L5.36 8.735a1.596 1.596 0 00-.184 1.934 15.048 15.048 0 004.18 4.378.309.309 0 01.013.012 1.422 1.422 0 001.838-.198l1.138-1.192c.186-.195.45-.2.628-.015l1.808 1.895zM8.752 1.32a.47.47 0 00.465.477c2.33-.029 4.508.893 6.134 2.597 1.626 1.704 2.507 3.986 2.48 6.426a.471.471 0 00.451.49.47.47 0 00.467-.474v-.005c.03-2.701-.945-5.229-2.748-7.117-1.803-1.89-4.216-2.912-6.795-2.88a.471.471 0 00-.454.487z" fill="#fff"/><path d="M9.171 3.966a.456.456 0 00-.399.242.501.501 0 00.004.483c.084.149.237.24.402.237h.004c3.072-.056 5.607 2.509 5.66 5.728v.201a.472.472 0 00.451.49.47.47 0 00.467-.474v-.005c.06-3.75-2.795-6.84-6.375-6.902a5.707 5.707 0 00-.214 0z" fill="#fff"/><path d="M11.696 12.988l-1.139 1.193a.53.53 0 01-.678.078l-.007-.007a14.113 14.113 0 01-3.926-4.112l-.01-.012a.597.597 0 01.073-.712l1.139-1.193a1.46 1.46 0 00.014-2.018L5.353 4.31a1.323 1.323 0 00-1.932-.01l-.476.498c-1.947 2.04-2.253 5.213-.728 7.543l.705 1.076a15.07 15.07 0 003.817 3.999l1.026.737c2.224 1.599 5.252 1.278 7.2-.762l.467-.49a1.48 1.48 0 00.008-2.024l-1.817-1.904c-.536-.56-1.383-.555-1.927.015zm3.085 2.56c.178.18.183.476.011.662l-.01.011-.467.489c-1.634 1.713-4.17 1.986-6.03.65l-1.026-.738a14.122 14.122 0 01-3.58-3.75l-.704-1.075c-1.276-1.948-1.015-4.605.62-6.318l.467-.489a.432.432 0 01.631-.01l1.82 1.906c.176.185.17.462-.015.657L5.36 8.735a1.596 1.596 0 00-.184 1.934 15.048 15.048 0 004.18 4.378.309.309 0 01.013.012 1.422 1.422 0 001.838-.198l1.138-1.192c.186-.195.45-.2.628-.015l1.808 1.895zM8.752 1.32a.47.47 0 00.465.477c2.33-.029 4.508.893 6.134 2.597 1.626 1.704 2.507 3.986 2.48 6.426a.471.471 0 00.451.49.47.47 0 00.467-.474v-.005c.03-2.701-.945-5.229-2.748-7.117-1.803-1.89-4.216-2.912-6.795-2.88a.471.471 0 00-.454.487z" stroke="#fff" stroke-width=".7"/><path d="M9.171 3.966a.456.456 0 00-.399.242.501.501 0 00.004.483c.084.149.237.24.402.237h.004c3.072-.056 5.607 2.509 5.66 5.728v.201a.472.472 0 00.451.49.47.47 0 00.467-.474v-.005c.06-3.75-2.795-6.84-6.375-6.902a5.707 5.707 0 00-.214 0z" stroke="#fff" stroke-width=".7"/></svg><svg fill="none" viewBox="0 0 16 16" id="close" xmlns="http://www.w3.org/2000/svg"><path d="M15.481 13.14A971.42 971.42 0 0010.367 8l5.14-5.14c1.527-1.527-.84-3.894-2.367-2.367L8 5.633C6.295 3.93 4.59 2.223 2.86.52c-1.527-1.527-3.894.84-2.367 2.366A976.98 976.98 0 015.633 8C3.93 9.705 2.223 11.41.52 13.14c-1.527 1.527.84 3.893 2.366 2.367 1.705-1.73 3.41-3.435 5.115-5.14l5.14 5.14c1.502 1.501 3.868-.865 2.341-2.367z" fill="#23283B"/></svg><svg viewBox="0 0 16 16" id="facebook" xmlns="http://www.w3.org/2000/svg"><path d="M4.47 8.47h1.562v6.498c0 .128.103.232.23.232h2.65c.126 0 .23-.104.23-.232V8.5h1.795a.23.23 0 00.229-.206l.272-2.392a.234.234 0 00-.056-.181.23.23 0 00-.172-.078H9.141v-1.5c0-.452.241-.68.716-.68h1.353c.127 0 .23-.105.23-.233V1.034a.231.231 0 00-.23-.232H9.346C9.333.802 9.304.8 9.26.8c-.324 0-1.448.064-2.336.89-.984.914-.848 2.01-.815 2.2v1.753H4.47a.231.231 0 00-.23.232v2.362c0 .128.103.232.23.232z"/><path d="M8.829 15.2h-2.57a.51.51 0 01-.51-.51V8.738H4.52a.51.51 0 01-.51-.51V5.96a.51.51 0 01.51-.51h1.305V4.077c-.044-.278-.142-1.405.882-2.347C7.645.867 8.827.8 9.167.8c.042 0 .072 0 .09.002h1.802a.51.51 0 01.51.51V3.42a.51.51 0 01-.51.51H9.746c-.342 0-.407.129-.407.367V5.45h1.72a.51.51 0 01.506.568L11.3 8.315a.51.51 0 01-.506.452H9.338v5.923a.51.51 0 01-.51.51zm-2.506-.574h2.442V8.48c0-.158.128-.287.287-.287h1.685l.25-2.17H9.052a.287.287 0 01-.287-.286v-1.44c0-.589.367-.94.981-.94h1.249V1.374H9.236l-.069-.001c-.287 0-1.286.056-2.071.778-.84.773-.732 1.678-.702 1.852a.288.288 0 01.004.05v1.683a.287.287 0 01-.287.287H4.584v2.14h1.452c.158 0 .287.128.287.287v6.175z"/><path d="M6.9 11.184a.287.287 0 01-.287-.287v-.143a.287.287 0 01.574 0v.143a.287.287 0 01-.287.287zM6.9 14.282a.287.287 0 01-.287-.287v-2.18a.287.287 0 11.574 0v2.18a.287.287 0 01-.287.287z"/></svg><svg viewBox="0 0 16 16" id="footer-facebook" xmlns="http://www.w3.org/2000/svg"><path d="M4.47 8.47h1.562v6.497c0 .129.103.233.23.233h2.65c.126 0 .23-.104.23-.232V8.5h1.795a.23.23 0 00.229-.206l.272-2.392a.234.234 0 00-.056-.181.23.23 0 00-.172-.078H9.141v-1.5c0-.452.241-.681.716-.681h1.353c.127 0 .23-.104.23-.232V1.034a.231.231 0 00-.23-.232H9.346C9.333.8 9.304.8 9.26.8c-.324 0-1.448.064-2.336.89-.984.914-.848 2.01-.815 2.2v1.753H4.47a.231.231 0 00-.23.232v2.362c0 .128.103.232.23.232z"/><path d="M8.829 15.2h-2.57a.51.51 0 01-.51-.51V8.737H4.52a.51.51 0 01-.51-.51V5.96a.51.51 0 01.51-.51h1.305V4.076c-.044-.278-.142-1.404.882-2.346C7.645.867 8.827.8 9.167.8l.09.001h1.802a.51.51 0 01.51.51V3.42a.51.51 0 01-.51.51H9.746c-.342 0-.407.129-.407.367V5.45h1.72a.51.51 0 01.506.568L11.3 8.315a.51.51 0 01-.506.452H9.338v5.923a.51.51 0 01-.51.51zm-2.506-.574h2.442V8.48c0-.158.128-.287.287-.287h1.685l.25-2.17H9.052a.287.287 0 01-.287-.286v-1.44c0-.59.367-.941.981-.941h1.249v-1.98H9.25l-.014-.001-.069-.001c-.287 0-1.286.056-2.071.778-.84.773-.732 1.678-.702 1.852a.288.288 0 01.004.05v1.683a.287.287 0 01-.287.287H4.584v2.14h1.452c.158 0 .287.128.287.287v6.175z"/><path d="M6.9 11.184a.287.287 0 01-.287-.287v-.143a.287.287 0 01.574 0v.143a.287.287 0 01-.287.287zM6.9 14.282a.287.287 0 01-.287-.287v-2.18a.287.287 0 11.574 0v2.18a.287.287 0 01-.287.287z"/></svg><svg viewBox="0 0 16 16" id="footer-instagram" xmlns="http://www.w3.org/2000/svg"><path d="M10.913 14.93H5.087c-2.205 0-4-1.794-4-4V5.07c0-2.205 1.795-4 4-4h5.826c2.205 0 4 1.795 4 4v5.862c0 2.205-1.795 4-4 4zM5.087 2.713a2.359 2.359 0 00-2.356 2.356v5.862c0 1.299 1.057 2.356 2.356 2.356h5.826c1.299 0 2.356-1.057 2.356-2.356V5.069c0-1.3-1.057-2.356-2.356-2.356H5.087z"/><path d="M8 11.43A3.433 3.433 0 014.57 8c0-1.89 1.54-3.43 3.43-3.43 1.89 0 3.43 1.54 3.43 3.43 0 1.89-1.54 3.43-3.43 3.43zm0-5.256c-1.007 0-1.826.82-1.826 1.826 0 1.007.82 1.826 1.826 1.826 1.007 0 1.826-.82 1.826-1.826 0-1.007-.82-1.826-1.826-1.826zM11.51 5.095a.606.606 0 11.001-1.212.606.606 0 01-.001 1.212z"/><path d="M10.913 15.218H5.087A4.292 4.292 0 01.8 10.93V5.069A4.292 4.292 0 015.087.782h5.826A4.292 4.292 0 0115.2 5.069v5.862a4.292 4.292 0 01-4.287 4.287zM5.087 1.357a3.716 3.716 0 00-3.712 3.712v5.862a3.716 3.716 0 003.712 3.712h5.826a3.716 3.716 0 003.712-3.712V5.069a3.716 3.716 0 00-3.712-3.712H5.087zm5.826 12.217H5.087a2.647 2.647 0 01-2.643-2.643V5.069a2.646 2.646 0 012.643-2.644h5.826a2.646 2.646 0 012.643 2.644v5.862a2.646 2.646 0 01-2.643 2.643zM5.087 3A2.07 2.07 0 003.02 5.07v5.862a2.07 2.07 0 002.068 2.068h5.826a2.07 2.07 0 002.068-2.068V5.069A2.07 2.07 0 0010.913 3H5.087z"/><path d="M8 11.717A3.721 3.721 0 014.283 8 3.721 3.721 0 018 4.283 3.721 3.721 0 0111.717 8 3.721 3.721 0 018 11.717zm0-6.859A3.145 3.145 0 004.858 8 3.145 3.145 0 008 11.142 3.145 3.145 0 0011.142 8 3.145 3.145 0 008 4.858zm0 5.256A2.116 2.116 0 015.886 8c0-1.165.949-2.114 2.114-2.114s2.114.949 2.114 2.114A2.116 2.116 0 018 10.114zm0-3.652A1.54 1.54 0 006.462 8c0 .848.69 1.538 1.538 1.538A1.54 1.54 0 009.538 8 1.54 1.54 0 008 6.462z"/><path d="M11.51 5.383a.894.894 0 010-1.786.894.894 0 010 1.786zm0-1.211a.318.318 0 100 .636.318.318 0 000-.636zM7.54 14.412H4.837a.288.288 0 110-.575H7.54a.288.288 0 110 .575zM8.633 14.412H8.46a.288.288 0 110-.575h.173a.288.288 0 110 .575z"/></svg><svg viewBox="0 0 16 16" id="footer-vk" xmlns="http://www.w3.org/2000/svg"><g clip-path="url(#gclip0_2121:167)"><path d="M13.54 9.181c.51.498 1.048.966 1.505 1.513a4.4 4.4 0 01.539.777c.207.402.02.844-.34.868l-2.239-.001c-.577.048-1.037-.185-1.425-.58-.31-.315-.596-.651-.894-.977a2.117 2.117 0 00-.403-.358c-.305-.199-.57-.138-.745.18-.178.325-.218.684-.236 1.045-.024.527-.183.665-.712.69-1.132.053-2.205-.118-3.203-.689-.88-.503-1.561-1.213-2.155-2.017C2.077 8.066 1.192 6.345.397 4.577c-.18-.399-.048-.613.391-.62.73-.014 1.46-.013 2.191-.001.297.004.493.174.608.455.395.97.878 1.895 1.485 2.751.162.228.326.457.56.617.26.178.458.119.58-.17a1.91 1.91 0 00.129-.577c.058-.676.065-1.35-.036-2.023-.062-.42-.299-.692-.718-.772-.214-.04-.182-.12-.079-.242.18-.21.35-.342.687-.342h2.529c.398.079.487.258.541.658l.002 2.81c-.004.155.078.615.357.718.224.073.371-.106.505-.248.606-.642 1.038-1.402 1.424-2.188.171-.346.319-.705.461-1.064.106-.267.272-.398.572-.392l2.434.002c.073 0 .146.001.216.013.41.07.522.247.396.647-.2.629-.588 1.152-.968 1.679-.406.561-.84 1.104-1.243 1.669-.37.516-.34.776.12 1.224z"/><path d="M8.21 12.665c-1.135 0-2.113-.243-2.981-.74-.826-.472-1.542-1.14-2.253-2.104-1.01-1.369-1.895-2.946-2.87-5.114-.136-.303-.141-.559-.014-.76.127-.2.36-.303.69-.31a60.593 60.593 0 012.202 0c.41.006.728.238.898.653a13.175 13.175 0 001.45 2.688c.141.2.287.405.48.538h.002a.07.07 0 00.104-.03v-.001c.054-.128.088-.28.105-.482.065-.75.054-1.368-.033-1.947-.044-.298-.187-.454-.463-.506-.078-.015-.316-.06-.396-.286-.08-.224.076-.406.134-.475.202-.237.454-.455.93-.455h2.529c.02 0 .04.002.059.006.637.124.743.527.798.928a.321.321 0 01.003.043l.002 2.81v.009a.735.735 0 00.038.218.146.146 0 00.246.053l.028-.029c.613-.65 1.036-1.432 1.369-2.11.174-.351.324-.722.452-1.041.158-.4.45-.6.87-.593l2.432.003c.084 0 .174 0 .268.017.195.033.47.105.619.349.148.243.087.52.027.708-.207.654-.595 1.19-.97 1.71l-.043.059c-.192.266-.392.53-.586.786-.218.287-.444.585-.655.882-.142.197-.203.33-.194.42.009.092.097.216.276.39.133.13.271.262.405.388.38.36.773.733 1.121 1.15.192.231.41.51.578.835.16.312.163.664.006.942a.75.75 0 01-.63.39h-2.225c-.62.047-1.18-.18-1.665-.675-.215-.22-.42-.449-.618-.67a40.38 40.38 0 00-.285-.317 1.843 1.843 0 00-.34-.305c-.073-.047-.138-.07-.175-.06-.035.008-.079.056-.118.127-.139.253-.18.546-.197.906-.03.682-.316.96-1.016.993-.133.006-.265.01-.394.01zM.64 4.295a.542.542 0 00.048.15c.956 2.126 1.82 3.666 2.802 4.997.657.89 1.31 1.503 2.056 1.93.858.491 1.849.702 3.03.647.245-.011.319-.048.34-.069.018-.016.058-.079.069-.317.019-.389.065-.801.274-1.183.162-.295.373-.401.521-.439.15-.038.389-.043.678.144.192.125.342.278.464.41.098.107.195.216.29.322.193.216.393.44.597.648.36.367.733.521 1.171.485a.328.328 0 01.026-.001h2.225c.02-.002.057-.012.088-.066.038-.066.056-.194-.018-.336a4.147 4.147 0 00-.5-.72c-.324-.387-.687-.73-1.07-1.094-.136-.128-.276-.26-.412-.394-.578-.564-.619-.992-.156-1.638.217-.304.445-.605.666-.897.192-.252.39-.514.578-.773l.043-.06c.36-.5.702-.973.879-1.528a.506.506 0 00.034-.183.515.515 0 00-.18-.054 1.038 1.038 0 00-.162-.008l-2.434-.002h-.006c-.143-.003-.203.024-.27.19a14.66 14.66 0 01-.471 1.088c-.354.72-.806 1.553-1.478 2.266l-.025.027c-.143.152-.409.436-.811.305a.442.442 0 01-.01-.004c-.442-.162-.572-.754-.567-1.021l-.002-2.784c-.014-.1-.037-.226-.077-.28-.01-.013-.038-.05-.178-.081H6.195a.499.499 0 00-.24.048c.366.166.598.491.665.942.095.628.107 1.295.039 2.096-.025.27-.073.485-.153.674-.125.295-.31.403-.443.443-.133.039-.347.047-.61-.133-.288-.197-.484-.474-.641-.696a13.802 13.802 0 01-1.52-2.816c-.091-.223-.212-.254-.317-.256a59.968 59.968 0 00-2.18.001.547.547 0 00-.156.02z"/><path d="M2.04 5.763a.319.319 0 01-.284-.175 34.568 34.568 0 01-.142-.283.319.319 0 11.571-.283l.14.279a.319.319 0 01-.285.462zM4.067 9.115a.318.318 0 01-.256-.13 21.783 21.783 0 01-1.54-2.42.319.319 0 01.558-.31c.483.875.972 1.644 1.495 2.352a.319.319 0 01-.257.508z"/></g><defs><clipPath id="gclip0_2121:167"><path d="M0 0h16v16H0z"/></clipPath></defs></svg><svg viewBox="0 0 16 16" id="footer-youtube" xmlns="http://www.w3.org/2000/svg"><path d="M15.183 4.25a1.879 1.879 0 00-1.322-1.321c-1.174-.322-5.869-.322-5.869-.322s-4.695 0-5.869.31c-.63.172-1.15.691-1.322 1.334C.492 5.424.492 7.859.492 7.859s0 2.446.31 3.607a1.88 1.88 0 001.321 1.323c1.186.32 5.87.32 5.87.32s4.694 0 5.868-.308a1.88 1.88 0 001.322-1.322c.31-1.174.31-3.608.31-3.608s.011-2.447-.31-3.62zm-8.686 5.857V5.61l3.905 2.249-3.905 2.248z"/></svg><svg viewBox="0 0 16 16" id="instagram" xmlns="http://www.w3.org/2000/svg"><path d="M10.913 14.93H5.087c-2.205 0-4-1.794-4-3.999V5.069c0-2.205 1.795-4 4-4h5.826c2.205 0 4 1.795 4 4v5.862c0 2.205-1.795 4-4 4zM5.087 2.713A2.359 2.359 0 002.731 5.07v5.862a2.359 2.359 0 002.356 2.356h5.826c1.299 0 2.356-1.057 2.356-2.356V5.069c0-1.3-1.057-2.356-2.356-2.356H5.087z"/><path d="M8 11.43A3.433 3.433 0 014.57 8c0-1.89 1.54-3.43 3.43-3.43 1.89 0 3.43 1.54 3.43 3.43 0 1.89-1.54 3.43-3.43 3.43zm0-5.256c-1.007 0-1.826.82-1.826 1.826 0 1.007.82 1.826 1.826 1.826 1.007 0 1.826-.82 1.826-1.826 0-1.007-.82-1.826-1.826-1.826zM11.51 5.096a.606.606 0 11.001-1.213.606.606 0 01-.001 1.213z"/><path d="M10.913 15.218H5.087A4.292 4.292 0 01.8 10.931V5.069A4.292 4.292 0 015.087.782h5.826A4.292 4.292 0 0115.2 5.069v5.862a4.292 4.292 0 01-4.287 4.287zM5.087 1.358a3.716 3.716 0 00-3.712 3.711v5.862a3.716 3.716 0 003.712 3.712h5.826a3.716 3.716 0 003.712-3.712V5.069a3.716 3.716 0 00-3.712-3.712H5.087zm5.826 12.216H5.087a2.647 2.647 0 01-2.643-2.643V5.069a2.646 2.646 0 012.643-2.643h5.826a2.646 2.646 0 012.643 2.643v5.862a2.646 2.646 0 01-2.643 2.644zM5.087 3.002A2.07 2.07 0 003.02 5.069v5.862a2.07 2.07 0 002.068 2.068h5.826a2.07 2.07 0 002.068-2.068V5.069a2.07 2.07 0 00-2.068-2.068H5.087z"/><path d="M8 11.717A3.72 3.72 0 014.283 8 3.721 3.721 0 018 4.283 3.721 3.721 0 0111.717 8 3.72 3.72 0 018 11.717zm0-6.859A3.145 3.145 0 004.858 8 3.145 3.145 0 008 11.142 3.145 3.145 0 0011.142 8 3.145 3.145 0 008 4.858zm0 5.256A2.116 2.116 0 015.886 8c0-1.165.949-2.114 2.114-2.114s2.114.949 2.114 2.114A2.116 2.116 0 018 10.114zm0-3.652A1.54 1.54 0 006.462 8c0 .848.69 1.538 1.538 1.538A1.54 1.54 0 009.538 8 1.54 1.54 0 008 6.462z"/><path d="M11.51 5.383a.894.894 0 010-1.786.894.894 0 010 1.786zm0-1.21a.318.318 0 100 .636.318.318 0 000-.637zM7.54 14.413H4.837a.288.288 0 010-.575H7.54a.288.288 0 010 .575zM8.633 14.413H8.46a.288.288 0 010-.575h.173a.288.288 0 010 .575z"/></svg><svg fill="none" viewBox="0 0 170 40" id="logo" xmlns="http://www.w3.org/2000/svg"><path d="M45.433 8.147l-.675.708v2.09a.511.511 0 01-.154.381.543.543 0 01-.6.12.526.526 0 01-.171-.12.512.512 0 01-.153-.38V4.353a.604.604 0 01.153-.384.6.6 0 01.382-.152.61.61 0 01.386.152.605.605 0 01.154.393V7.31l3.029-3.228a.511.511 0 01.35-.206.5.5 0 01.405.109.515.515 0 01.208.348.498.498 0 01-.11.404l-2.45 2.628 2.482 3.244a.499.499 0 01.135.392.557.557 0 01-.212.369.541.541 0 01-.754-.077l-2.405-3.145zM52.146 8.53l-2.22 2.72a.54.54 0 01-.42.208.528.528 0 01-.328-.12.516.516 0 01-.212-.348.492.492 0 01.11-.404l2.382-2.94-2.357-2.917a.501.501 0 01-.11-.404.477.477 0 01.203-.355.486.486 0 01.393-.109c.142.02.271.095.36.207l2.199 2.7 2.153-2.704a.564.564 0 01.57-.195.49.49 0 01.185.097.481.481 0 01.207.36.496.496 0 01-.11.403l-2.317 2.918-.688.882zM58.727 3.846a2.116 2.116 0 011.509.662 2.128 2.128 0 01.032 2.973c-.394.414-.927.67-1.498.719-.006.006-.63.01-1.87.01v2.69a.495.495 0 01-.163.382.528.528 0 01-.763.003.557.557 0 01-.166-.377V4.39A.536.536 0 0155.97 4a.52.52 0 01.384-.154h2.372zm-.088 3.277a1.085 1.085 0 00.798-.328c.208-.208.328-.488.335-.781a1.136 1.136 0 00-.339-.774 1.08 1.08 0 00-.798-.304h-1.734v2.187h1.738zM68.052 6.503a.542.542 0 01-.406.045.46.46 0 01-.309-.241c-.546-.907-1.33-1.36-2.35-1.36a2.768 2.768 0 00-1.931.802 2.745 2.745 0 00-.813 1.92 2.546 2.546 0 00.81 1.904 2.69 2.69 0 001.935.774c.448.002.889-.11 1.282-.323.402-.22.744-.533.996-.915a.442.442 0 01.341-.243.407.407 0 01.383.109.496.496 0 01.27.316.413.413 0 01-.077.403c-.343.54-.816.986-1.377 1.297a3.66 3.66 0 01-1.826.468 3.752 3.752 0 01-2.711-1.111 3.602 3.602 0 01-1.146-2.68 3.663 3.663 0 011.149-2.721 3.853 3.853 0 014.613-.61 3.465 3.465 0 011.364 1.382.582.582 0 01.077.468.491.491 0 01-.274.316zM69.616 11.447a.52.52 0 01-.388-.153.538.538 0 01-.163-.392v-6.51a.474.474 0 01.163-.381.504.504 0 01.384-.165.528.528 0 01.382.165.476.476 0 01.164.38v2.69c1.24 0 1.863.004 1.87.012.57.049 1.103.304 1.497.718.385.393.597.922.59 1.47a2.19 2.19 0 01-.629 1.51c-.397.403-.935.639-1.502.657l-2.368-.001zm.54-3.278v2.188h1.739a1.085 1.085 0 00.798-.304c.209-.205.33-.482.34-.773a1.147 1.147 0 00-.34-.784 1.081 1.081 0 00-.798-.327h-1.739zm4.297-3.82a.537.537 0 01.54-.539c.147.004.288.06.395.16a.6.6 0 01.153.382v6.572a.517.517 0 01-.153.38.526.526 0 01-.382.165.562.562 0 01-.54-.538l-.013-6.583zM84.2 3.825a.597.597 0 01.382.153.6.6 0 01.154.396.592.592 0 01-.154.38.595.595 0 01-.382.153h-1.662v6.017a.512.512 0 01-.154.38.52.52 0 01-.382.165.561.561 0 01-.54-.538V4.903h-1.658a.52.52 0 01-.382-.152.521.521 0 01-.122-.59.539.539 0 01.504-.332l4.396-.004zM88.102 8.53l-2.22 2.72a.54.54 0 01-.425.208.523.523 0 01-.328-.12.513.513 0 01-.208-.348.502.502 0 01.11-.404l2.382-2.94-2.36-2.917a.501.501 0 01-.11-.404.538.538 0 01.961-.26l2.198 2.7 2.155-2.7a.564.564 0 01.36-.208.542.542 0 01.602.468.499.499 0 01-.11.404l-2.318 2.918-.689.882zM94.684 3.846a2.117 2.117 0 011.508.662 2.065 2.065 0 01.623 1.503 2.055 2.055 0 01-.59 1.47 2.349 2.349 0 01-1.497.719c-.008.006-.631.01-1.87.01v2.69a.497.497 0 01-.164.382.526.526 0 01-.383.164.564.564 0 01-.54-.538V4.39A.537.537 0 0191.936 4a.518.518 0 01.382-.154h2.366zm-.087 3.277a1.084 1.084 0 00.797-.328c.21-.208.332-.489.34-.784a1.13 1.13 0 00-.34-.774 1.081 1.081 0 00-.797-.304H92.86v2.19h1.738zM101.513 10.357a.598.598 0 01.383.154.543.543 0 01.123.6.495.495 0 01-.123.172.531.531 0 01-.383.164h-3.812a.564.564 0 01-.54-.538V4.39A.537.537 0 0197.326 4a.516.516 0 01.382-.154h3.805a.598.598 0 01.383.154.543.543 0 01.163.391.49.49 0 01-.159.386.532.532 0 01-.387.16h-3.269v2.186h2.493a.598.598 0 01.382.154.544.544 0 01.124.6.51.51 0 01-.124.172.52.52 0 01-.382.164h-2.489v2.144h3.265zM108.284 11.458h-5.015a.508.508 0 01-.382-.164.518.518 0 01-.163-.381v-6.51a.483.483 0 01.163-.382.508.508 0 01.382-.164.529.529 0 01.384.164.477.477 0 01.157.381v5.966h3.377V4.402a.483.483 0 01.163-.38.511.511 0 01.384-.165.528.528 0 01.382.164.478.478 0 01.164.381v5.966h.558a.61.61 0 01.393.153c.095.105.15.24.154.381v1.785a.52.52 0 01-.154.381.561.561 0 01-.607.122.544.544 0 01-.179-.122.484.484 0 01-.124-.172.482.482 0 01-.041-.209l.004-1.23zM111.695 8.147l-.676.708v2.09a.503.503 0 01-.154.381.547.547 0 01-.601.121.52.52 0 01-.174-.121.5.5 0 01-.154-.38V4.353a.6.6 0 01.153-.384.597.597 0 01.382-.152.616.616 0 01.393.152.607.607 0 01.154.393V7.31l3.027-3.228a.527.527 0 01.35-.206.504.504 0 01.405.109.515.515 0 01.208.348.497.497 0 01-.109.404l-2.444 2.628 2.482 3.244a.5.5 0 01.135.392.56.56 0 01-.218.369.54.54 0 01-.753-.077l-2.406-3.145zM119.119 11.447a3.612 3.612 0 01-2.679-1.133 3.746 3.746 0 01-1.105-2.7 3.67 3.67 0 011.105-2.656 3.775 3.775 0 012.678-1.112 3.788 3.788 0 012.678 1.112 3.67 3.67 0 011.105 2.657 3.717 3.717 0 01-1.105 2.7 3.59 3.59 0 01-2.677 1.132zm0-6.544c-.722 0-1.414.286-1.925.795a2.704 2.704 0 00-.798 1.916 2.673 2.673 0 00.798 1.971 2.7 2.7 0 001.924.802 2.71 2.71 0 001.925-.802 2.762 2.762 0 00.81-1.97 2.625 2.625 0 00-.81-1.917 2.633 2.633 0 00-1.924-.795zM124.595 4.947v5.966a.534.534 0 01-.163.391.598.598 0 01-.382.154.527.527 0 01-.505-.333.534.534 0 01-.041-.212v-6.51a.483.483 0 01.163-.382.511.511 0 01.384-.164h3.804a.528.528 0 01.382.164.476.476 0 01.158.381.53.53 0 01-.165.393.597.597 0 01-.375.152h-3.26zM132.456 11.447a3.612 3.612 0 01-2.679-1.133 3.747 3.747 0 01-1.104-2.7 3.68 3.68 0 011.104-2.657 3.775 3.775 0 012.679-1.11 3.788 3.788 0 012.678 1.11 3.685 3.685 0 011.105 2.657 3.718 3.718 0 01-1.105 2.7 3.604 3.604 0 01-2.678 1.133zm0-6.544a2.73 2.73 0 00-1.924.795 2.707 2.707 0 00-.798 1.916 2.673 2.673 0 00.798 1.971 2.71 2.71 0 003.849 0 2.762 2.762 0 00.81-1.97 2.608 2.608 0 00-.81-1.917 2.632 2.632 0 00-1.925-.795zM144.68 3.87a.543.543 0 01.393.162.517.517 0 01.163.38v6.512a.496.496 0 01-.163.38.556.556 0 01-.89-.172.496.496 0 01-.04-.208v-2.69h-1.116l-1.814 2.959a.537.537 0 01-.47.269.484.484 0 01-.284-.077.543.543 0 01-.252-.348.49.49 0 01.066-.403l1.531-2.484a2.49 2.49 0 01-1.17-.827 2.06 2.06 0 01-.269-2.132c.116-.264.285-.502.496-.699a2.092 2.092 0 011.498-.62l2.321-.003zm-.541 3.276V4.958h-1.738a1.085 1.085 0 00-.799.305c-.208.204-.33.481-.339.772a1.148 1.148 0 00.704 1.03c.138.057.285.084.434.081h1.738zM147.037 9.41c.02.146.071.286.148.411.076.125.178.234.299.319.255.189.568.284.886.268.322.01.635-.103.875-.316a.984.984 0 00.349-.762 1.093 1.093 0 00-.349-.794 1.188 1.188 0 00-.875-.348.682.682 0 01-.448-.154.485.485 0 01-.164-.38.534.534 0 01.164-.392.682.682 0 01.448-.153 1.191 1.191 0 001.134-.706c.06-.138.09-.288.09-.44a.997.997 0 00-.349-.762 1.26 1.26 0 00-.875-.316 1.594 1.594 0 00-.863.262 1.016 1.016 0 00-.47.599.675.675 0 01-.241.36.47.47 0 01-.437.087c-.371-.067-.557-.27-.558-.611a2.039 2.039 0 01.929-1.274 2.87 2.87 0 011.644-.472 2.639 2.639 0 011.728.61 1.917 1.917 0 01.743 1.525 2.001 2.001 0 01-.874 1.687 2.012 2.012 0 01.874 1.676c0 .575-.248 1.075-.743 1.502a2.558 2.558 0 01-1.728.643 2.83 2.83 0 01-1.717-.538 2.158 2.158 0 01-.852-1.361c0-.34.186-.548.558-.62a.8.8 0 01.459.14.42.42 0 01.215.31zM152.035 11.447a.513.513 0 01-.382-.153.53.53 0 01-.164-.392v-6.51a.483.483 0 01.164-.381.498.498 0 01.382-.165.529.529 0 01.384.165.49.49 0 01.163.38v2.69c1.239 0 1.862.004 1.87.012a2.35 2.35 0 011.5.717c.385.392.597.921.591 1.47a2.195 2.195 0 01-.63 1.509 2.21 2.21 0 01-1.502.658h-2.376zm.54-3.278v2.188h1.739a1.08 1.08 0 00.798-.304c.209-.204.33-.482.338-.773a1.143 1.143 0 00-.338-.784 1.08 1.08 0 00-.798-.327h-1.739zm4.297-3.82a.538.538 0 01.541-.539.605.605 0 01.383.152c.095.106.149.241.153.382v6.58a.52.52 0 01-.153.38.525.525 0 01-.383.165.562.562 0 01-.541-.538V4.348zM160.444 8.147l-.676.708v2.09a.518.518 0 01-.152.381.54.54 0 01-.777 0 .517.517 0 01-.153-.38V4.353a.613.613 0 01.153-.393.604.604 0 01.384-.152.616.616 0 01.39.161c.096.11.15.248.153.393V7.31l3.028-3.228a.527.527 0 01.35-.206.5.5 0 01.405.109.512.512 0 01.208.348.507.507 0 01-.109.404l-2.449 2.624 2.483 3.244a.502.502 0 01.135.392.571.571 0 01-.208.37.543.543 0 01-.755-.076l-2.41-3.143zM168.163 9.944h-2.668l-.46 1.11c-.051.261-.225.393-.524.393h-.121a.601.601 0 01-.338-.316c-.073-.08-.092-.214-.055-.404l2.339-6.488a.512.512 0 01.541-.393.492.492 0 01.513.393l2.219 6.488a.542.542 0 010 .404.611.611 0 01-.328.316.668.668 0 01-.405-.055.712.712 0 01-.318-.338l-.395-1.11zm-.323-1.1l-.962-2.787-.985 2.787h1.947z" fill="#23283B"/><path d="M53.588 15.484c.81-1.821 3.562-1.749 4.332.07 2.413 5.097 4.24 10.458 6.544 15.605 1.439.286 3.943.37 3.765 2.455.27 1.519-1.23 2.825-2.702 2.595-6.484.039-12.976.109-19.464.008-1.892.21-3.22-1.775-2.62-3.479.69-1.417 2.402-1.223 3.686-1.573 2.281-5.17 4.048-10.568 6.46-15.68zm-1.11 15.92c2.202-.009 4.403-.009 6.604 0-1.065-2.812-2.139-5.621-3.22-8.428-1.301 2.733-2.336 5.585-3.384 8.428zM69.769 16.169c.045-1.238 1.094-2.19 2.255-2.142a2.211 2.211 0 011.418.631c.38.375.61.874.65 1.405l-.036 12.241a600.84 600.84 0 0010.842-12.97c.237-.323.543-.591.897-.782.717-.386 1.75-.51 2.398-.065.778.538.83 1.697.845 2.22.075 2.393.09 8.987-.024 17.856-.384 1.19-1.533 1.938-2.702 1.808a2.572 2.572 0 01-1.364-.614 2.554 2.554 0 01-.787-1.269c-.05-3.549-.097-7.098-.145-10.647l-6.007 6.397a216.508 216.508 0 01-4.215 4.65c-.262.282-.991 1.034-1.982 1.21-.23.042-.972.174-1.518-.24a1.556 1.556 0 01-.16-.128c-.43-.404-.46-.989-.473-1.227-.04-.712-.01-8.148.108-18.334zM96.74 16.653c.7-1.804 2.52-3.477 4.592-2.78 2.297 1.014 2.837 3.687 3.726 5.784 1.595 4.687 3.782 9.188 5.033 13.99.505 1.892-1.756 3.2-3.377 2.51-1.494-.952-1.68-2.85-2.311-4.353-2.715-.008-5.422 0-8.13-.022-.505 1.247-.886 2.572-1.62 3.71-1.035 1.278-3.353 1.123-4.1-.38-.242-2.17.793-4.183 1.5-6.166 1.626-4.08 2.976-8.256 4.687-12.293zm.832 10.59c1.813 0 3.628-.003 5.445-.008-.946-2.711-1.781-5.454-2.621-8.197-1.02 2.705-1.898 5.455-2.824 8.205zM117.625 17.636c.355-1.049 1.232-3.64 2.814-3.843.279-.031.562.002.826.097 1.792.578 2.518 3.058 2.648 3.523l6.456 16.222a2.403 2.403 0 01-1.502 2.676 2.417 2.417 0 01-2.917-.98l-5.025-12.376-4.323 11.544c-.344 1.12-1.215 1.926-2.235 2.046-.194.023-1.39.134-2.041-.774-.591-.828-.242-1.813-.207-1.91 2.434-7.308 4.389-12.956 5.506-16.225zM138.11 14.616c3.975-1.434 8.938-.976 12.058 2.068 3.695 3.65 3.959 9.686 2.07 14.26-3.243 7.491-15.535 7.677-19.2.473-2.862-5.677-1.471-14.352 5.072-16.8zm1.603 4.555c-3.19 2.317-3.478 7.13-1.728 10.412 1.649 3.185 6.738 3.44 8.729.489 1.844-2.743 1.844-6.578.155-9.398-1.401-2.378-4.901-2.96-7.156-1.503zM156.787 14.693l11.334-.134c1.136.333 1.898 1.345 1.879 2.383-.023 1.285-1.216 2.44-2.724 2.39l-7.486.013-.093 15.066a2.415 2.415 0 01-.794 1.532 2.435 2.435 0 01-4.037-1.517l-.124-15.5c-.035-.19-.421-2.528 1.06-3.719a2.81 2.81 0 01.985-.514z" fill="#E6514A"/><path d="M25.977 14.98c3.877 0 7.019-3.13 7.019-6.99 0-3.86-3.143-6.99-7.019-6.99-3.876 0-7.019 3.13-7.019 6.99 0 3.86 3.143 6.99 7.02 6.99z" stroke="#23283B" stroke-width=".83" stroke-miterlimit="10"/><path d="M29.443 10.118a5.292 5.292 0 01-6.754.121" stroke="#23283B" stroke-width=".83" stroke-miterlimit="10" stroke-linecap="round"/><path d="M23.671 6.41a.283.283 0 01-.285.28.283.283 0 01-.285-.28c0-.154.126-.282.285-.282.16 0 .285.128.285.281zM29.185 6.41a.283.283 0 01-.285.28.283.283 0 01-.285-.28c0-.154.126-.282.285-.282.16 0 .285.128.285.281z" fill="#23283B" stroke="#23283B"/><path d="M10.692 18.313c3.877 0 7.02-3.13 7.02-6.99 0-3.86-3.143-6.99-7.02-6.99-3.876 0-7.019 3.13-7.019 6.99 0 3.86 3.143 6.99 7.02 6.99z" stroke="#23283B" stroke-width=".83" stroke-miterlimit="10"/><path d="M14.16 13.453a5.295 5.295 0 01-6.754.12" stroke="#23283B" stroke-width=".83" stroke-miterlimit="10" stroke-linecap="round"/><path d="M8.386 9.743a.283.283 0 01-.285.281.283.283 0 01-.284-.281c0-.154.125-.282.284-.282.16 0 .285.128.285.282zM13.9 9.743a.283.283 0 01-.284.281.283.283 0 01-.285-.281c0-.154.125-.282.285-.282.159 0 .284.128.284.282z" fill="#23283B" stroke="#23283B"/><path d="M35.67 27.23c0-5.539-4.749-10.257-5.562-11.324-1.08 1.336-3.176 1.615-4.13 1.666-.956-.055-3.051-.33-4.13-1.665-.811 1.066-5.563 5.784-5.563 11.324 0 4.026 2.381 8.406 9.195 8.793v.031c.17 0 .334 0 .497-.01.163-.009.328.01.497.01v-.03c6.822-.388 9.197-4.768 9.197-8.794z" fill="#fff"/><path d="M35.67 27.279c0-1.824-.317-2.97-1.037-4.516-1.467-3.146-16.075-2.845-17.542.075-.832 1.655-.81 2.437-.81 4.44 0 4.026 2.381 8.405 9.195 8.793v.031c.17 0 .334 0 .497-.009.163-.01.328.01.497.01v-.032c6.826-.387 9.2-4.766 9.2-8.792z" fill="#3035C4"/><path d="M16.336 28.308c1.004 3.265 2.909 7.41 9.144 7.765v.03c.17 0 .334 0 .497-.009.163-.01.328.01.497.01v-.031c6.233-.355 9.093-5.056 9.144-7.17-2.088-2.583-14.599-2.583-19.282-.595z" fill="#E6514A"/><path opacity=".33" d="M26.06 33.686c-4.146-.414-7.21-3.71-6.841-7.36-.776-.134-1.101.473-1.506.605-.37 3.65 2.701 6.945 6.842 7.36a8.216 8.216 0 004.657-.882 8.398 8.398 0 01-3.151.277z" fill="#fff"/><path d="M35.67 27.23c0-5.539-4.749-10.257-5.562-11.324-1.08 1.336-3.176 1.615-4.13 1.666-.956-.055-3.051-.33-4.13-1.665-.811 1.066-5.563 5.784-5.563 11.324 0 4.026 2.381 8.406 9.195 8.793v.031c.17 0 .334 0 .497-.01.163-.009.328.01.497.01v-.03c6.822-.388 9.197-4.768 9.197-8.794z" stroke="#23283B" stroke-width=".83" stroke-linejoin="round"/><path d="M20.386 30.177c0-5.54-4.75-10.258-5.563-11.325-1.08 1.336-3.176 1.615-4.13 1.665-.956-.054-3.05-.329-4.13-1.665C5.753 19.92 1 24.637 1 30.177c0 4.025 2.382 8.405 9.197 8.792V39c.168 0 .332 0 .495-.01.164-.009.329.01.497.01v-.031c6.815-.387 9.197-4.767 9.197-8.792z" fill="#E6514A" stroke="#23283B" stroke-width=".83" stroke-linejoin="round"/><path fill-rule="evenodd" clip-rule="evenodd" d="M10.999 28.314l.623.826.98-.334-.597.845.623.826-.992-.304-.596.844-.015-1.033-.992-.304.982-.333L11 28.313z" fill="#fff"/><path d="M10.114 33.478a3.766 3.766 0 01-2.657-1.096 3.734 3.734 0 010-5.293 3.766 3.766 0 013.858-.897 4.412 4.412 0 00-4.72-.011 4.386 4.386 0 00-1.627 1.834 4.364 4.364 0 00.592 4.663 4.416 4.416 0 006.603.192 3.76 3.76 0 01-2.049.608z" fill="#fff"/></svg><svg fill="none" viewBox="0 0 16 16" id="phone" xmlns="http://www.w3.org/2000/svg"><rect width="16" height="16" rx="8" fill="#E6514A"/><path d="M12.022 10.45l-1.3-1.303a.677.677 0 00-.957.018l-.655.656a19.224 19.224 0 01-.13-.072c-.413-.23-.98-.545-1.575-1.142-.598-.6-.912-1.168-1.142-1.583l-.07-.126.439-.44.216-.217a.68.68 0 00.018-.959L5.565 3.98a.676.676 0 00-.956.018l-.367.37.01.01a2.126 2.126 0 00-.302.533c-.07.186-.114.364-.134.542-.172 1.426.479 2.73 2.244 4.5 2.44 2.446 4.408 2.261 4.492 2.252a2.195 2.195 0 001.073-.438l.008.007.371-.364a.681.681 0 00.018-.959z" fill="#fff"/></svg><svg fill="none" viewBox="0 0 80 80" id="play" xmlns="http://www.w3.org/2000/svg"><path d="M40 0C17.937 0 0 17.937 0 40s17.937 40 40 40 40-17.937 40-40S62.063 0 40 0zm12.884 42.021L34.021 54.568c-1.6 1.095-3.79-.084-3.79-2.02V27.452c0-1.937 2.19-3.116 3.79-2.021l18.863 12.547c1.432.926 1.432 3.116 0 4.042z" fill="#fff"/></svg><svg fill="none" viewBox="0 0 100 100" id="portfel" xmlns="http://www.w3.org/2000/svg"><circle opacity=".6" cx="50" cy="50" r="49" fill="#DEDEFF" fill-opacity=".4" stroke="#3035C4" stroke-width="2"/><g clip-path="url(#mclip0_2121:98)"><path d="M57.03 29.966H41.815a.732.732 0 100 1.465H57.03a.732.732 0 100-1.465z" fill="#E6514A"/><path fill-rule="evenodd" clip-rule="evenodd" d="M40.833 30.699c0-.543.44-.983.982-.983H57.03a.982.982 0 110 1.965H41.815a.982.982 0 01-.982-.982zm.982-.483a.482.482 0 100 .965H57.03a.482.482 0 100-.965H41.815z" fill="#E6514A"/><path d="M57.03 34.253H41.815a.732.732 0 100 1.465H57.03a.732.732 0 100-1.465z" fill="#E6514A"/><path fill-rule="evenodd" clip-rule="evenodd" d="M40.833 34.986c0-.543.44-.983.982-.983H57.03a.982.982 0 110 1.965H41.815a.982.982 0 01-.982-.982zm.982-.483a.482.482 0 100 .965H57.03a.482.482 0 100-.965H41.815z" fill="#E6514A"/><path d="M71.047 50.33H66.7v-2.044a4.893 4.893 0 00-4.887-4.888h-8.234a4.893 4.893 0 00-4.888 4.888v2.044h-4.348a3.952 3.952 0 00-3.953 3.953v16.75a3.957 3.957 0 003.953 3.953h26.706A3.957 3.957 0 0075 71.033V67.86a.732.732 0 10-1.465 0v3.173a2.49 2.49 0 01-2.487 2.488H44.341a2.49 2.49 0 01-2.488-2.488v-10.38a6.56 6.56 0 004.843 2.432v1.118a2.68 2.68 0 002.677 2.677 2.68 2.68 0 002.676-2.677V63.09H63.34v1.113a2.68 2.68 0 002.677 2.677 2.68 2.68 0 002.676-2.677v-1.118a6.56 6.56 0 004.843-2.432v3.782a.732.732 0 101.465 0V54.283a3.952 3.952 0 00-3.953-3.953zm-20.892-2.044a3.426 3.426 0 013.422-3.423h8.235a3.426 3.426 0 013.422 3.423v2.044H63.71v-2.044a1.9 1.9 0 00-1.897-1.897h-8.234a1.9 1.9 0 00-1.898 1.897v2.044h-1.525v-2.044zm2.99 2.044v-2.044c0-.239.194-.433.432-.433h8.235c.238 0 .432.194.432.433v2.044h-9.099zm-2.56 13.873a1.213 1.213 0 01-2.423 0v-2.618c0-.668.544-1.212 1.212-1.212.668 0 1.212.544 1.212 1.212v2.618zm16.642 0a1.213 1.213 0 01-2.423 0v-1.838-.007-.773c0-.668.543-1.212 1.212-1.212.668 0 1.211.544 1.211 1.212v2.618zm1.465-2.584v-.034a2.68 2.68 0 00-2.676-2.677 2.68 2.68 0 00-2.677 2.677v.04H52.05v-.04a2.68 2.68 0 00-2.677-2.677 2.68 2.68 0 00-2.677 2.677v.034a5.109 5.109 0 01-4.843-5.096v-2.24a2.488 2.488 0 012.488-2.488h26.706c1.37 0 2.487 1.11 2.487 2.488v2.24a5.11 5.11 0 01-4.843 5.096z" fill="#3035C4"/><path d="M39.445 73.52H28.622a2.16 2.16 0 01-2.157-2.156V36.183c0-.158.017-.314.05-.465h6.665a2.527 2.527 0 002.524-2.524V26.53c.151-.033.306-.05.465-.05h24.833a2.16 2.16 0 012.157 2.157v12.567a.732.732 0 101.464 0V28.636a3.626 3.626 0 00-3.622-3.622H36.17c-.968 0-1.878.377-2.562 1.06l-7.546 7.548A3.598 3.598 0 0025 36.182v35.182a3.626 3.626 0 003.622 3.622h10.823a.732.732 0 100-1.465zm-5.206-46.005v5.68a1.06 1.06 0 01-1.059 1.058H27.5l6.74-6.738z" fill="#3035C4"/><path fill-rule="evenodd" clip-rule="evenodd" d="M33.43 25.898a3.848 3.848 0 012.739-1.134h24.833a3.876 3.876 0 013.871 3.872v12.567a.982.982 0 11-1.964 0V28.636a1.91 1.91 0 00-1.907-1.907H36.169a1.93 1.93 0 00-.215.012v6.453a2.777 2.777 0 01-2.774 2.774h-6.453c-.008.07-.012.142-.012.215v35.18a1.91 1.91 0 001.907 1.908h10.823a.982.982 0 110 1.965H28.622a3.876 3.876 0 01-3.872-3.872V36.183c0-1.034.403-2.007 1.134-2.738l7.547-7.547zm2.739-.634c-.902 0-1.748.35-2.385.988l-7.546 7.546a3.348 3.348 0 00-.988 2.385v35.18a3.376 3.376 0 003.372 3.373h10.823a.482.482 0 100-.965H28.622a2.41 2.41 0 01-2.407-2.407V36.183c0-.176.019-.35.055-.518l.044-.197h6.866a2.277 2.277 0 002.274-2.274v-6.866l.197-.043a2.43 2.43 0 01.518-.056h24.833a2.41 2.41 0 012.407 2.407v12.567a.482.482 0 10.964 0V28.636a3.376 3.376 0 00-3.372-3.372H36.17zm-1.68 1.647v6.283a1.31 1.31 0 01-1.309 1.31h-6.283l7.592-7.593zm-6.385 7.092h5.076a.81.81 0 00.81-.809v-5.076l-5.886 5.885z" fill="#3035C4"/></g><defs><clipPath id="mclip0_2121:98"><path fill="#fff" transform="translate(25 25)" d="M0 0h50v50H0z"/></clipPath></defs></svg><svg fill="none" viewBox="0 0 17 16" id="price" xmlns="http://www.w3.org/2000/svg"><g clip-path="url(#nclip0_2136:4)"><path d="M8.75 0a8 8 0 100 16 8 8 0 000-16zM6.434 4.21L12.75 8l-6.316 3.79V4.21z" fill="#3035C4"/></g><defs><clipPath id="nclip0_2136:4"><path fill="#fff" transform="translate(.75)" d="M0 0h16v16H0z"/></clipPath></defs></svg><svg fill="none" viewBox="0 0 100 100" id="students" xmlns="http://www.w3.org/2000/svg"><circle opacity=".6" cx="50" cy="50" r="49" fill="#DEDEFF" fill-opacity=".4" stroke="#3035C4" stroke-width="2"/><path d="M69.663 64.847c.535-.74.853-1.65.853-2.631v-5.868a.977.977 0 00-.977-.977h-4.364a3.663 3.663 0 00-3.66 3.66v3.185c0 .981.317 1.89.853 2.63a6.287 6.287 0 00-1.91.635 8.309 8.309 0 00-6.134-3.656l-.03-.008a5.741 5.741 0 001.471-3.841V50a.977.977 0 00-.976-.977h-5.932a4.628 4.628 0 00-4.622 4.623v4.33c0 1.474.557 2.82 1.47 3.841l-.03.008a8.309 8.309 0 00-6.134 3.656 6.297 6.297 0 00-1.909-.635c.535-.74.852-1.649.852-2.63v-5.868a.977.977 0 00-.976-.977h-4.365a3.663 3.663 0 00-3.659 3.66v3.185c0 .982.317 1.89.853 2.631C27.315 65.341 25 67.97 25 71.13v2.893c0 .54.437.977.977.977h48.046c.54 0 .977-.437.977-.977V71.13c0-3.16-2.315-5.789-5.337-6.283zM31.438 59.03c0-.94.765-1.706 1.705-1.706h3.388v1.19c0 .583-.474 1.057-1.057 1.057h-4.036v-.54zm0 2.494h4.036a2.99 2.99 0 001.057-.192v.884a2.55 2.55 0 01-2.547 2.547 2.55 2.55 0 01-2.547-2.547v-.692zm3.176 5.192l-.63.63-.63-.63h1.26zm3.526 3.375v2.956H26.953V71.13a4.421 4.421 0 013.699-4.355l2.642 2.642a.977.977 0 001.38 0l2.644-2.643c.467.076.916.226 1.334.447a8.263 8.263 0 00-.512 2.87zM50 61.788a3.817 3.817 0 01-3.812-3.812v-1.291h5.836c.647 0 1.257-.166 1.788-.456v1.747A3.817 3.817 0 0150 61.788zm1.702 1.953L50 65.443l-1.702-1.702h3.404zm-5.514-10.095a2.672 2.672 0 012.669-2.67h4.955v1.968a1.79 1.79 0 01-1.788 1.788h-5.836v-1.086zm13.719 19.4H40.093v-1.952h6.359a.977.977 0 000-1.953h-6.288a6.364 6.364 0 015.43-5.342l3.715 3.716a.973.973 0 001.382 0l3.715-3.716c3.101.417 5.5 3.079 5.5 6.292v2.956zm3.562-14.016c0-.94.765-1.706 1.706-1.706h3.388v1.19c0 .583-.475 1.057-1.058 1.057h-4.036v-.54zm0 2.494h4.036c.372 0 .728-.068 1.058-.192v.884a2.55 2.55 0 01-2.547 2.547 2.55 2.55 0 01-2.547-2.547v-.692zm3.176 5.192l-.63.63-.629-.63h1.26zm-4.785 6.33v-2.955a8.264 8.264 0 00-.512-2.87c.418-.221.867-.371 1.334-.447l2.643 2.643a.977.977 0 001.381 0l2.642-2.642a4.421 4.421 0 013.699 4.355v1.917H61.86z" fill="#3035C4"/><path d="M54.813 31.38a.977.977 0 00-1.381 0l-4.792 4.793-2.072-2.072a.977.977 0 10-1.38 1.381l2.761 2.762a.977.977 0 001.381 0l5.483-5.482a.977.977 0 000-1.381z" fill="#E6514A"/><path d="M53.993 25.847a.977.977 0 00-.796 1.784 7.873 7.873 0 014.662 7.182c0 4.333-3.525 7.859-7.859 7.859s-7.86-3.526-7.86-7.86a7.878 7.878 0 014.629-7.166.977.977 0 00-.804-1.78 9.835 9.835 0 00-5.777 8.947c0 5.41 4.401 9.812 9.812 9.812 5.41 0 9.812-4.402 9.812-9.812a9.828 9.828 0 00-5.819-8.966z" fill="#E6514A"/><path d="M50.035 25H50a.977.977 0 000 1.953h.031A.976.976 0 0050.035 25zM50.69 69.427a.983.983 0 00-.69-.286.984.984 0 00-.69.286.984.984 0 00-.287.69c0 .257.105.509.287.69a.984.984 0 00.69.287.983.983 0 00.69-.286.984.984 0 00.287-.69.983.983 0 00-.287-.691z" fill="#3035C4"/></svg><svg viewBox="0 0 16 16" id="vk" xmlns="http://www.w3.org/2000/svg"><g clip-path="url(#pclip0_2118:698)"><path d="M13.54 9.181c.51.498 1.048.966 1.505 1.513a4.4 4.4 0 01.539.777c.207.402.02.844-.34.868l-2.239-.002c-.577.048-1.037-.184-1.425-.579-.31-.315-.596-.651-.894-.977a2.114 2.114 0 00-.403-.358c-.305-.199-.57-.138-.745.18-.178.325-.218.684-.236 1.045-.024.527-.183.665-.712.69-1.132.053-2.205-.118-3.203-.689-.88-.503-1.561-1.213-2.155-2.017C2.077 8.066 1.192 6.345.397 4.577c-.18-.399-.048-.613.391-.62.73-.014 1.46-.013 2.191-.001.297.004.493.174.608.455.395.97.878 1.895 1.485 2.751.162.228.326.456.56.617.26.178.458.119.58-.17a1.91 1.91 0 00.129-.577c.058-.676.065-1.35-.036-2.023-.062-.42-.299-.692-.718-.772-.214-.04-.182-.12-.079-.242.18-.21.35-.342.687-.342h2.529c.398.079.487.258.541.658l.002 2.81c-.004.155.078.615.357.718.224.073.371-.106.505-.248.606-.642 1.038-1.402 1.424-2.188.171-.346.319-.705.461-1.064.106-.267.272-.398.572-.392l2.434.002c.073 0 .146.001.216.013.41.07.522.247.396.647-.2.629-.588 1.152-.968 1.679-.406.561-.84 1.104-1.243 1.669-.37.516-.34.776.12 1.224z"/><path d="M8.21 12.665c-1.135 0-2.113-.243-2.981-.74-.826-.472-1.542-1.14-2.253-2.104-1.01-1.369-1.895-2.946-2.87-5.114-.136-.303-.141-.559-.014-.759.127-.2.36-.304.69-.31a60.57 60.57 0 012.202 0c.41.005.728.237.898.652a13.175 13.175 0 001.45 2.688c.141.2.287.406.48.538h.002a.07.07 0 00.104-.03v-.001c.054-.127.088-.28.105-.482.065-.75.054-1.368-.033-1.947-.044-.298-.187-.453-.463-.506-.078-.014-.316-.06-.396-.286-.08-.223.076-.406.134-.475.202-.236.454-.454.93-.454h2.529c.02 0 .04.001.059.005.637.125.743.527.798.929a.321.321 0 01.003.042l.002 2.81v.009a.735.735 0 00.038.218.146.146 0 00.246.053l.028-.029c.613-.65 1.036-1.432 1.369-2.11.174-.351.324-.721.452-1.041.158-.4.45-.6.87-.592l2.432.002c.084 0 .174.001.268.017.195.033.47.106.619.35.148.243.087.52.027.707-.207.654-.595 1.19-.97 1.71l-.043.06c-.192.265-.392.53-.586.785-.218.288-.444.585-.655.882-.142.197-.203.33-.194.42.009.092.097.216.276.39v.001c.133.13.271.26.405.388.38.36.773.732 1.121 1.15.192.23.41.51.578.834.16.312.163.664.006.942a.749.749 0 01-.63.39h-2.225c-.62.047-1.18-.18-1.665-.675-.215-.219-.42-.448-.618-.67a40.38 40.38 0 00-.285-.316 1.843 1.843 0 00-.34-.306c-.073-.047-.138-.07-.175-.06-.035.008-.079.056-.118.127-.139.254-.18.546-.197.906-.03.682-.316.961-1.016.993-.133.006-.264.01-.394.01zM.64 4.295a.542.542 0 00.048.151c.956 2.125 1.82 3.666 2.802 4.996.657.89 1.31 1.503 2.056 1.93.858.491 1.849.703 3.03.647.245-.011.319-.048.34-.069.018-.016.058-.079.069-.317.019-.389.065-.8.274-1.183.162-.295.373-.401.521-.439.15-.037.389-.043.678.144.192.126.342.278.464.41.098.107.195.217.29.322.193.216.393.44.597.648.36.367.733.521 1.171.485a.287.287 0 01.026-.001h2.225c.02-.002.057-.011.088-.066.038-.066.056-.194-.018-.336a4.147 4.147 0 00-.5-.72c-.324-.387-.687-.73-1.07-1.094a38.02 38.02 0 01-.412-.394c-.578-.563-.619-.992-.156-1.638.217-.304.445-.605.666-.896.192-.253.39-.514.578-.774l.043-.06c.36-.5.702-.972.879-1.528a.506.506 0 00.034-.183.515.515 0 00-.18-.054 1.038 1.038 0 00-.162-.008l-2.434-.002h-.006c-.143-.003-.203.024-.27.19a14.66 14.66 0 01-.471 1.088c-.354.72-.806 1.553-1.478 2.266l-.025.027c-.143.152-.409.436-.811.305a.488.488 0 01-.01-.004c-.442-.162-.572-.754-.567-1.02l-.002-2.785c-.014-.099-.037-.226-.077-.28-.01-.013-.038-.05-.178-.081H6.195a.499.499 0 00-.24.048c.366.166.598.491.665.942.095.629.107 1.295.039 2.097-.025.27-.073.484-.153.674-.125.294-.31.403-.443.442-.133.039-.347.047-.61-.133-.288-.197-.484-.473-.641-.695a13.802 13.802 0 01-1.52-2.816c-.091-.223-.212-.255-.317-.257a59.946 59.946 0 00-2.18.001.547.547 0 00-.156.02z"/><path d="M2.04 5.764a.319.319 0 01-.284-.175 34.566 34.566 0 01-.142-.284.319.319 0 11.571-.282l.14.278a.319.319 0 01-.285.463zM4.067 9.116a.318.318 0 01-.256-.13 21.782 21.782 0 01-1.54-2.421.319.319 0 01.558-.309c.483.874.972 1.643 1.495 2.352a.319.319 0 01-.257.508z"/></g><defs><clipPath id="pclip0_2118:698"><path fill="#fff" d="M0 0h16v16H0z"/></clipPath></defs></svg><svg fill="none" viewBox="0 0 16 16" id="whatsapp" xmlns="http://www.w3.org/2000/svg"><path d="M8.002 0h-.004C3.587 0 0 3.588 0 8a7.94 7.94 0 001.523 4.689l-.997 2.972 3.075-.983A7.93 7.93 0 008.002 16C12.413 16 16 12.411 16 8s-3.587-8-7.998-8z" fill="#4CAF50"/><path d="M12.657 11.297c-.193.545-.959.997-1.57 1.129-.418.089-.964.16-2.802-.602-2.351-.974-3.865-3.363-3.983-3.518-.113-.155-.95-1.265-.95-2.413s.583-1.707.818-1.947c.193-.197.512-.287.818-.287.099 0 .188.005.268.009.235.01.353.024.508.395.193.465.663 1.613.72 1.731.056.118.113.278.033.433-.075.16-.141.231-.259.367-.118.136-.23.24-.348.386-.108.127-.23.263-.094.498.136.23.606.997 1.298 1.613.893.795 1.617 1.049 1.876 1.157.193.08.423.061.564-.089.18-.193.4-.513.625-.828.16-.226.362-.254.574-.174.216.075 1.36.64 1.594.757.235.118.39.174.447.273.056.099.056.564-.137 1.11z" fill="#FAFAFA"/></svg></svg>